<?xml version="1.0" encoding="utf-8"?>
<!-- Generator: Adobe Illustrator 19.0.0, SVG Export Plug-In . SVG Version: 6.00 Build 0)  -->
<svg version="1.1" id="Icons" xmlns="http://www.w3.org/2000/svg" xmlns:xlink="http://www.w3.org/1999/xlink" x="0px" y="0px"
	 viewBox="0 0 100 100" style="enable-background:new 0 0 100 100;" xml:space="preserve">
<style type="text/css">
	.st0{fill:#FFFFFF;}
	.st1{fill:#8982F7;}
</style>
<circle id="XMLID_1_" class="st0" cx="50" cy="50" r="50"/>
<g id="Front_End_Developer">
	<path id="XMLID_76_" class="st1" d="M51.2,76.2l1.2-8.4l15-15H53.3v-9.7h17.4v6.4l1.9-1.9V29.7H28.2v1.9h18.3
		c1.6,0,2.9,1.3,2.9,2.9V50c0,1.6-1.3,2.9-2.9,2.9H28.2V77c0,0.5,0.4,1,1,1h42.5c0.5,0,1-0.4,1-1V62L59.5,75L51.2,76.2z M53.3,31.7
		h17.4v9.7H53.3V31.7z M37.8,56.8h1.9v-1.9h1.9v1.9h1.9v1.9h-1.9v9.7h-1.9v-9.7h-1.9V56.8z M30.1,64.5H32v-9.7H34v9.7h1.9v1.9H34
		v1.9H32v-1.9h-1.9V64.5z M45.6,76.1H30.1v-1.9h15.4V76.1z M49.4,76.1h-1.9v-1.9h1.9V76.1z M49.4,72.2H30.1v-1.9h19.3V72.2z
		 M49.4,68.3h-1.9v-5.8h-1.9v-1.9h1.9v-5.8h1.9v5.8h1.9v1.9h-1.9V68.3z M68.7,66.4h1.9v1.9h-1.9V66.4z M68.7,70.3h1.9v1.9h-1.9V70.3
		z M68.7,74.1h1.9v1.9h-1.9V74.1z"/>
	<path id="XMLID_71_" class="st1" d="M72.6,23c0-0.5-0.4-1-1-1H29.2c-0.5,0-1,0.4-1,1v4.8h44.4V23z M31.1,25.9h-1.9v-1.9h1.9V25.9z
		 M34.9,25.9H33v-1.9h1.9V25.9z M38.8,25.9h-1.9v-1.9h1.9V25.9z"/>
	<path id="XMLID_66_" class="st1" d="M47.5,50V34.6c0-0.5-0.4-1-1-1H25.3c-0.5,0-1,0.4-1,1V50c0,0.5,0.4,1,1,1h21.2
		C47.1,51,47.5,50.5,47.5,50z M31.8,45.5l-1.4,1.4l-4.5-4.5l4.5-4.5l1.4,1.4l-3.2,3.2L31.8,45.5z M34.9,48.4l-1.8-0.6l3.9-11.6
		l1.8,0.6L34.9,48.4z M41.4,46.8l-1.4-1.4l3.2-3.2l-3.2-3.2l1.4-1.4l4.5,4.5L41.4,46.8z"/>
	<path id="XMLID_37_" class="st1" d="M55.2,33.6h13.5v5.8H55.2V33.6z"/>
	<path id="XMLID_36_" class="st1" d="M55.2,45.2h13.5V51H55.2V45.2z"/>
	<path id="XMLID_35_" class="st1" d="M54.6,68.3l16-16l1.5,1.5l-16,16L54.6,68.3z"/>
	<path id="XMLID_34_" class="st1" d="M57.5,71.2l16-16l1.5,1.5l-16,16L57.5,71.2z"/>
	<path id="XMLID_33_" class="st1" d="M77.2,47.1c-0.8,0-1.6,0.3-2.2,0.9h0L72,51l4.4,4.4l2.9-2.9c0.6-0.6,0.9-1.4,0.9-2.2
		C80.3,48.5,78.9,47.1,77.2,47.1z"/>
	<path id="XMLID_32_" class="st1" d="M53.5,74l3.6-0.5L54,70.4L53.5,74z"/>
</g>
</svg>
