<?xml version="1.0" encoding="utf-8"?>
<!-- Generator: Adobe Illustrator 19.0.0, SVG Export Plug-In . SVG Version: 6.00 Build 0)  -->
<svg version="1.1" id="Icons" xmlns="http://www.w3.org/2000/svg" xmlns:xlink="http://www.w3.org/1999/xlink" x="0px" y="0px"
	 viewBox="0 0 100 100" style="enable-background:new 0 0 100 100;" xml:space="preserve">
<style type="text/css">
	.st0{fill:#FFFFFF;}
	.st1{fill:#8982F7;}
</style>
<circle id="XMLID_1_" class="st0" cx="50" cy="50" r="50"/>
<g id="Graphics_Design">
	<path id="XMLID_31_" class="st1" d="M75.8,50.3c-0.5-8.8-5.6-16.7-13-20.9h6.5c0.7,2,2.6,3.4,4.8,3.4c2.8,0,5.2-2.3,5.2-5.2
		s-2.3-5.2-5.2-5.2c-2.2,0-4.1,1.4-4.8,3.4H55.2v-3.4H44.8v3.4H30.7c-0.7-2-2.6-3.4-4.8-3.4c-2.8,0-5.2,2.3-5.2,5.2s2.3,5.2,5.2,5.2
		c2.2,0,4.1-1.4,4.8-3.4h6.5c-7.4,4.3-12.5,12.1-13,20.9c-2,0.7-3.5,2.6-3.5,4.9c0,2.8,2.3,5.2,5.2,5.2S31,58,31,55.2
		c0-2.2-1.4-4.1-3.3-4.8c0.6-9.8,7.7-18,17.2-20.3v2.7h10.3v-2.7c9.5,2.3,16.6,10.5,17.2,20.3C70.4,51.1,69,53,69,55.2
		c0,2.8,2.3,5.2,5.2,5.2c2.8,0,5.2-2.3,5.2-5.2C79.3,52.9,77.9,51,75.8,50.3z"/>
	<path id="XMLID_30_" class="st1" d="M38,70.6H62v6.9H38V70.6z"/>
	<path id="XMLID_29_" class="st1" d="M37.7,55.1l6.1,12.1h12.4l6.1-12.1L51.7,37.5v19.4h-3.4V37.5L37.7,55.1z"/>
</g>
</svg>
