<?xml version="1.0" encoding="utf-8"?>
<!-- Generator: Adobe Illustrator 19.0.0, SVG Export Plug-In . SVG Version: 6.00 Build 0)  -->
<svg version="1.1" id="Icons" xmlns="http://www.w3.org/2000/svg" xmlns:xlink="http://www.w3.org/1999/xlink" x="0px" y="0px"
	 viewBox="0 0 100 100" style="enable-background:new 0 0 100 100;" xml:space="preserve">
<style type="text/css">
	.st0{fill:#FFFFFF;}
	.st1{fill:#8982F7;}
</style>
<circle id="XMLID_1_" class="st0" cx="50" cy="50" r="50"/>
<g id="SEO">
	<path id="XMLID_28_" class="st1" d="M59.9,40.8h-3.4c-1.2-0.1-2.3,0.8-2.4,2v10.2c0.1,1.2,1.2,2.1,2.4,2h3.4c1.2,0.1,2.3-0.8,2.4-2
		V42.8C62.2,41.6,61.1,40.7,59.9,40.8z"/>
	<path id="XMLID_27_" class="st1" d="M69.4,75.5h7.2c1.1,0,2.2-0.4,2.9-1.2c0.8-0.8,1.2-1.8,1.2-2.9v-7.2
		C74.5,64.3,69.4,69.3,69.4,75.5z"/>
	<path class="st1" d="M19.3,34.7v36.8c0,1.1,0.4,2.2,1.2,2.9c0.8,0.8,1.8,1.2,2.9,1.2h39.3c0-1.5,0.2-3.1,0.6-4.5l-2.5-0.8l0.6-1.9
		l2.5,0.8c0.4-1.1,1-2.2,1.6-3.2l-2.1-1.5l1.2-1.7l2.1,1.5c0.8-0.9,1.6-1.8,2.5-2.5l-1.5-2.1l1.7-1.2l1.5,2.1c1-0.6,2.1-1.2,3.2-1.6
		l-0.8-2.5l1.9-0.6l0.8,2.5c1.5-0.4,3-0.6,4.5-0.6v-23H19.3z M37.7,43.9h-2v-1c-0.1-1.2-1.2-2.1-2.4-2h-3.4c-1.2-0.1-2.3,0.8-2.4,2
		v2c0.1,1.2,1.2,2.1,2.4,2h3.4c2.3-0.1,4.3,1.7,4.4,4.1v2c-0.1,2.3-2.1,4.2-4.4,4.1h-3.4c-2.3,0.1-4.3-1.7-4.4-4.1v-1h2v1
		c0.1,1.2,1.2,2.1,2.4,2h3.4c1.2,0.1,2.3-0.8,2.4-2v-2c-0.1-1.2-1.2-2.1-2.4-2h-3.4c-2.3,0.1-4.3-1.7-4.4-4.1v-2
		c0.1-2.3,2.1-4.2,4.4-4.1h3.4c2.3-0.1,4.3,1.7,4.4,4.1V43.9z M50,40.8h-6.5c-1,0.1-1.8,1-1.7,2v4.1H50v2h-8.2v4.1
		c-0.1,1,0.7,1.9,1.7,2H50v2h-6.5c-2.2-0.1-3.8-1.9-3.7-4.1V42.8c-0.1-2.2,1.6-4,3.7-4.1H50V40.8z M64.3,53.1
		c-0.1,2.3-2.1,4.2-4.4,4.1h-3.4c-2.3,0.1-4.3-1.7-4.4-4.1V42.8c0.1-2.3,2.1-4.2,4.4-4.1h3.4c2.3-0.1,4.3,1.7,4.4,4.1V53.1z"/>
	<path id="XMLID_21_" class="st1" d="M64.8,75.5h2.6c0-7.3,6-13.3,13.3-13.3v-2.6C71.9,59.7,64.8,66.8,64.8,75.5z"/>
	<path class="st1" d="M80.7,32.6v-4.1c0-1.1-0.4-2.2-1.2-2.9c-0.8-0.8-1.8-1.2-2.9-1.2H23.4c-1.1,0-2.2,0.4-2.9,1.2
		c-0.8,0.8-1.2,1.8-1.2,2.9v4.1H80.7z M74.5,28.5h2v2h-2V28.5z M31.6,28.5h2v2h-2V28.5z M27.5,28.5h2v2h-2V28.5z M23.4,28.5h2v2h-2
		V28.5z"/>
</g>
</svg>
