<?xml version="1.0" encoding="utf-8"?>
<!-- Generator: Adobe Illustrator 19.0.0, SVG Export Plug-In . SVG Version: 6.00 Build 0)  -->
<svg version="1.1" id="Icons" xmlns="http://www.w3.org/2000/svg" xmlns:xlink="http://www.w3.org/1999/xlink" x="0px" y="0px"
	 viewBox="0 0 100 100" style="enable-background:new 0 0 100 100;" xml:space="preserve">
<style type="text/css">
	.st0{fill:#FFFFFF;}
	.st1{fill:#8982F7;}
</style>
<circle id="XMLID_1_" class="st0" cx="50" cy="50" r="50"/>
<g id="Ui_UX">
	<path id="XMLID_13_" class="st1" d="M42.2,58.1l-4.1-1.8L37,57.3l1.8,4.1L42.2,58.1z"/>
	<path id="XMLID_12_" class="st1" d="M35.8,53.9l1.6-1.6l2.1,0.9l5.6,2.5v-8.6H31.9v16.5h4.3L34,58.7l-0.9-2.1l1.6-1.6L35.8,53.9z"
		/>
	<path id="XMLID_22_" class="st1" d="M78.1,37.3V24H21.9v13.3H78.1z M43.4,29.6h28v3.3h-28V29.6z M35.2,29.6h3.3v3.3h-3.3V29.6z
		 M28.6,29.6h3.3v3.3h-3.3V29.6z"/>
	<path id="XMLID_7_" class="st1" d="M49.8,73.7l4.6-4.6l-1.6-1.6l-7.7-7.7l-4.6,4.6l3,3L49.8,73.7z"/>
	<path id="XMLID_6_" class="st1" d="M21.9,40.6v32.9h23l-3.7-3.7l-2.9-2.9h-9.8v-23h42.8v23H57l6.6,6.6h14.5V40.6H21.9z"/>
	<path id="XMLID_5_" class="st1" d="M52.1,76l4.6-4.6l4,4L56.1,80L52.1,76z"/>
	<path id="XMLID_15_" class="st1" d="M68.1,63.6V47.2H48.4v11.1l5.3,5.3H68.1z M51.6,50.5h13.2v3.3H51.6V50.5z M51.6,57h13.2v3.3
		H51.6V57z"/>
</g>
</svg>
