<?xml version="1.0" encoding="utf-8"?>
<!-- Generator: Adobe Illustrator 19.0.0, SVG Export Plug-In . SVG Version: 6.00 Build 0)  -->
<svg version="1.1" id="Icons" xmlns="http://www.w3.org/2000/svg" xmlns:xlink="http://www.w3.org/1999/xlink" x="0px" y="0px"
	 viewBox="0 0 100 100" style="enable-background:new 0 0 100 100;" xml:space="preserve">
<style type="text/css">
	.st0{fill:#FFFFFF;}
	.st1{fill:#8982F7;}
</style>
<circle id="XMLID_1_" class="st0" cx="50" cy="50" r="50"/>
<g id="Web_Development">
	<path class="st1" d="M22.8,32v30.6h54.3V32c0-3-2.4-5.4-5.4-5.4H28.2C25.3,26.6,22.8,29,22.8,32z M59.7,38.7
		c-0.7-0.7-0.7-1.8,0-2.5s1.8-0.7,2.5,0l7.2,7.2c0.7,0.7,0.7,1.8,0,2.5l-7.2,7.2c-0.7,0.7-1.8,0.7-2.5,0s-0.7-1.8,0-2.5l5.9-5.9
		L59.7,38.7z M44.7,54.8l7.2-21.6c0.3-0.9,1.3-1.5,2.3-1.1c0.9,0.3,1.5,1.3,1.1,2.3L48.1,56c-0.3,0.9-1.3,1.5-2.3,1.1
		C44.9,56.8,44.4,55.8,44.7,54.8z M30.6,43.3l7.2-7.2c0.7-0.7,1.8-0.7,2.5,0s0.7,1.8,0,2.5l-5.9,5.9l5.9,5.9c0.7,0.7,0.7,1.8,0,2.5
		s-1.8,0.7-2.5,0l-7.2-7.2C29.9,45.2,29.9,44,30.6,43.3z"/>
	<path id="XMLID_57_" class="st1" d="M79,66.2H21c-1,0-1.8,0.8-1.8,1.8c0,3,2.4,5.4,5.4,5.4h50.7c3,0,5.4-2.4,5.4-5.4
		C80.8,67,80,66.2,79,66.2z"/>
</g>
</svg>
